# xmcd CD database file
#
# Track frame offsets:
#	150
#	15291
#	34345
#	50027
#	63832
#	74282
#	86898
#	101542
#	116709
#	131092
#	148792
#	165890
#	177283
#	195598
#	206981
#
# Disc length: 2952 seconds
#
# Revision: 1
# Processed by: cddbd v1.5.2PL0 Copyright (c) Steve Scherf et al.
# Submitted via: CDex 1.51
#
DISCID=d80b860f
DTITLE=Verschiedene - Ohrewürm 5
DYEAR=2009
DGENRE=Kinder Musik
TTITLE0=Stahlberger - Mir Ässed In Reim
TTITLE1=Evi Sorgenstein - Nöd Müed
TTITLE2=Adrian Stern - Verchehrti Wält
TTITLE3=Heidi Happy - Immer Ich
TTITLE4=Schtärneföifi - Ravioli Us De Büchs
TTITLE5=Sarbach - Velöle
TTITLE6=Schönholzer - Frässe
TTITLE7=Kabel Feat. Oriana Schrage - Pfütze
TTITLE8=Admiral James T. - Min Teddybär
TTITLE9=Meret Matter and Pierre Omer - Limbo
TTITLE10=Kutti Mc - Johnny Muff
TTITLE11=Duo Hinterletscht - De Chlini Max
TTITLE12=Big Zis - Lied Vom Spatz
TTITLE13=Franz Hohler - Doingdoing
TTITLE14=Sina - Där Mond
EXTD=YEAR: 2009
EXTT0=
EXTT1=
EXTT2=
EXTT3=
EXTT4=
EXTT5=
EXTT6=
EXTT7=
EXTT8=
EXTT9=
EXTT10=
EXTT11=
EXTT12=
EXTT13=
EXTT14=
PLAYORDER=
